# xmcd CD database file
#
# Track frame offsets:
#	150
#	18945
#	35795
#	57432
#	76622
#
# Disc length: 1277 seconds
#
# Revision: 0
# Processed by: cddbd v1.4PL0 Copyright (c) Steve Scherf et al.
# Submitted via: CDex 1.50beta9
#
DISCID=3304fb05
DTITLE=Alicia Dara - State Of Grace
DYEAR=2003
DGENRE=Rhythmic Soul
TTITLE0=State Of Grace
TTITLE1=Inside The Charm
TTITLE2=Stranger
TTITLE3=In The Night
TTITLE4=Temporary Tattoo
EXTD=YEAR: 2003
EXTT0=
EXTT1=
EXTT2=
EXTT3=
EXTT4=
PLAYORDER=
